<?xml version="1.0" encoding="UTF-8" standalone="no"?>
<!-- Created with Inkscape (http://www.inkscape.org/) -->

<svg
   width="954.65625"
   height="960"
   viewBox="0 0 252.58612 254.00001"
   version="1.1"
   id="svg1"
   inkscape:version="1.3.2 (091e20e, 2023-11-25, custom)"
   sodipodi:docname="logo.svg"
   xml:space="preserve"
   inkscape:export-filename="..\..\..\git\sloth.css\logo.svg"
   inkscape:export-xdpi="25.6"
   inkscape:export-ydpi="25.6"
   xmlns:inkscape="http://www.inkscape.org/namespaces/inkscape"
   xmlns:sodipodi="http://sodipodi.sourceforge.net/DTD/sodipodi-0.dtd"
   xmlns="http://www.w3.org/2000/svg"
   xmlns:svg="http://www.w3.org/2000/svg"><sodipodi:namedview
     id="namedview1"
     pagecolor="#505050"
     bordercolor="#ffffff"
     borderopacity="1"
     inkscape:showpageshadow="0"
     inkscape:pageopacity="0"
     inkscape:pagecheckerboard="1"
     inkscape:deskcolor="#505050"
     inkscape:document-units="mm"
     inkscape:zoom="0.41825547"
     inkscape:cx="1641.3414"
     inkscape:cy="508.06269"
     inkscape:window-width="1920"
     inkscape:window-height="1177"
     inkscape:window-x="2552"
     inkscape:window-y="-8"
     inkscape:window-maximized="1"
     inkscape:current-layer="layer1" /><defs
     id="defs1" /><g
     inkscape:label="Layer 1"
     inkscape:groupmode="layer"
     id="layer1"
     transform="translate(-304.69612,0.79374698)"><ellipse
       style="fill:#e5aa70;fill-opacity:1;stroke:none;stroke-width:7;stroke-linecap:round;stroke-miterlimit:15;stroke-opacity:1"
       id="path14"
       cx="430.9892"
       cy="126.20625"
       rx="126.29307"
       ry="127"
       inkscape:export-filename="..\..\..\git\sloth.css\favicon.svg"
       inkscape:export-xdpi="25.6"
       inkscape:export-ydpi="25.6" /><path
       id="path2"
       style="fill:#c87c36;fill-opacity:1;stroke:none;stroke-width:7;stroke-linecap:round;stroke-miterlimit:15;stroke-opacity:1"
       d="m 304.69613,139.59045 c 1.33018,-2.42585 2.98964,-4.92033 5.07721,-7.46777 14.46508,-17.65155 51.50177,-11.50059 51.50177,-11.50059 0,0 46.9824,6.66615 55.67825,-19.85201 20.09146,-61.269254 -58.12242,-49.644293 -94.03767,-41.422798 a 127,127 0 0 0 -19.17661,66.858968 127,127 0 0 0 0.95705,13.3842 z" /><path
       id="path12"
       style="fill:#c87c36;fill-opacity:1;stroke:none;stroke-width:7;stroke-linecap:round;stroke-miterlimit:15"
       d="m 557.28226,115.85443 c -28.83554,-23.756706 -93.16141,-68.608852 -103.78333,-5.57072 -4.62823,27.46747 38.41471,45.05461 38.41471,45.05461 0,0 32.46623,12.93517 37.11712,35.04799 1.38539,6.58687 0.72237,12.35237 -1.06867,17.32763 a 127,127 0 0 0 29.77699,-81.50769 127,127 0 0 0 -0.45682,-10.35182 z" /><ellipse
       style="fill:#5a3511;fill-opacity:1;stroke:#5a3511;stroke-width:5.78657;stroke-linecap:round;stroke-linejoin:round;stroke-miterlimit:15;stroke-dasharray:none;stroke-opacity:1"
       id="path5-0"
       cx="448.66196"
       cy="9.0552187"
       rx="13.780073"
       ry="7.5797372"
       transform="matrix(0.96236,0.27177792,-0.28616797,0.95817947,0,0)" /><path
       style="fill:none;fill-opacity:1;stroke:#5a3511;stroke-width:15;stroke-linecap:round;stroke-linejoin:round;stroke-miterlimit:15;stroke-dasharray:none;stroke-opacity:1"
       d="m 476.80681,107.08639 c 0,0 2.0879,20.7544 21.80715,9.47483"
       id="path6-7"
       sodipodi:nodetypes="cc" /><path
       style="fill:none;fill-opacity:1;stroke:#5a3511;stroke-width:15;stroke-linecap:round;stroke-linejoin:round;stroke-miterlimit:15;stroke-dasharray:none;stroke-opacity:1"
       d="m 374.88045,86.526297 c 0,0 7.96418,19.362053 23.66039,3.177089"
       id="path6-0-8"
       sodipodi:nodetypes="cc" /><path
       style="fill:none;fill-opacity:1;stroke:#5a3511;stroke-width:15;stroke-linecap:round;stroke-linejoin:round;stroke-miterlimit:15;stroke-dasharray:none;stroke-opacity:1"
       d="m 386.28704,142.12542 c 0,0 2.83236,17.84186 33.43673,23.91268 32.11049,6.36955 39.87244,-8.12131 39.87244,-8.12131"
       id="path7-8"
       sodipodi:nodetypes="csc" /><path
       style="fill:none;fill-opacity:1;stroke:none;stroke-width:11.3205;stroke-linecap:round;stroke-linejoin:round;stroke-miterlimit:15;stroke-dasharray:none;stroke-opacity:1"
       d="m 293.20608,97.603803 c 31.23257,-129.265918 152.47333,-48.019345 152.47333,-48.019345 0,0 146.5903,-10.843303 123.16763,104.179252 C 549.9769,246.4302 456.5107,247.99015 394.47615,232.40693 339.06924,218.48859 275.12019,172.45817 293.20608,97.603803 Z"
       id="path11-2"
       sodipodi:nodetypes="scsss" /></g></svg>
