<?xml version="1.0" encoding="UTF-8" standalone="no"?>
<!-- Created with Inkscape (http://www.inkscape.org/) -->

<svg
   width="954.65625"
   height="960"
   viewBox="0 0 252.58612 254.00001"
   version="1.1"
   id="svg1"
   xml:space="preserve"
   xmlns="http://www.w3.org/2000/svg"
   xmlns:svg="http://www.w3.org/2000/svg"><defs
     id="defs1" /><g
     id="layer2"
     transform="translate(-304.69612,0.79374698)"><ellipse
       style="fill:#e5aa70;fill-opacity:1;stroke:none;stroke-width:7;stroke-linecap:round;stroke-miterlimit:15;stroke-opacity:1"
       id="ellipse2"
       cx="430.9892"
       cy="126.20625"
       rx="126.29307"
       ry="127" /><path
       id="path14"
       style="display:inline;fill:#c87c36;fill-opacity:1;stroke:none;stroke-width:7;stroke-linecap:round;stroke-miterlimit:15;stroke-opacity:1"
       d="m 305.09662,131.83588 c 17.97965,-3.14245 36.07739,-0.13798 36.07739,-0.13798 0,0 58.69794,8.32853 69.56216,-24.8021 19.17979,-58.48909 -33.33828,-63.794627 -79.2055,-58.466715 a 126.29307,127 0 0 0 -26.83454,77.777165 126.29307,127 0 0 0 0.40049,5.62963 z" /><path
       id="path16"
       style="display:inline;fill:#c87c36;fill-opacity:1;stroke:none;stroke-width:7;stroke-linecap:round;stroke-miterlimit:15;stroke-opacity:1"
       d="m 555.09428,102.8144 c -38.85121,-25.500562 -88.51464,-44.479283 -98.69992,15.9675 -5.7823,34.31665 47.99397,56.28907 47.99397,56.28907 0,0 18.42742,7.37478 32.22284,20.63336 a 126.29307,127 0 0 0 20.67109,-69.49808 126.29307,127 0 0 0 -2.18798,-23.39185 z" /><ellipse
       style="fill:#5a3511;fill-opacity:1;stroke:#5a3511;stroke-width:7.22949;stroke-linecap:round;stroke-linejoin:round;stroke-miterlimit:15;stroke-dasharray:none;stroke-opacity:1"
       id="path5-0"
       cx="449.50928"
       cy="22.97423"
       rx="17.216234"
       ry="9.469799"
       transform="matrix(0.96235999,0.27177791,-0.28616796,0.95817947,0,0)" /><path
       style="fill:none;fill-opacity:1;stroke:#5a3511;stroke-width:18.7404;stroke-linecap:round;stroke-linejoin:round;stroke-miterlimit:15;stroke-dasharray:none;stroke-opacity:1"
       d="m 485.5144,114.78708 c 0,0 2.60854,25.92965 27.24493,11.83744"
       id="path6-7" /><path
       style="fill:none;fill-opacity:1;stroke:#5a3511;stroke-width:18.7404;stroke-linecap:round;stroke-linejoin:round;stroke-miterlimit:15;stroke-dasharray:none;stroke-opacity:1"
       d="m 358.17198,89.10017 c 0,0 9.9501,24.19013 29.56027,3.969319"
       id="path6-0-8" /><path
       style="fill:none;fill-opacity:1;stroke:#5a3511;stroke-width:18.7404;stroke-linecap:round;stroke-linejoin:round;stroke-miterlimit:15;stroke-dasharray:none;stroke-opacity:1"
       d="m 372.42288,158.56334 c 0,0 3.53863,22.29085 41.77442,29.87547 40.11747,7.95785 49.81492,-10.14641 49.81492,-10.14641"
       id="path7-8" /></g></svg>
