<?xml version="1.0" encoding="UTF-8" standalone="no"?>
<!-- Created with Inkscape (http://www.inkscape.org/) -->

<svg
   width="960"
   height="960"
   viewBox="0 0 253.99999 254.00001"
   version="1.1"
   id="svg1"
   inkscape:version="1.3.2 (091e20e, 2023-11-25, custom)"
   sodipodi:docname="logo.svg"
   xml:space="preserve"
   inkscape:export-filename="logo.png"
   inkscape:export-xdpi="25.6"
   inkscape:export-ydpi="25.6"
   xmlns:inkscape="http://www.inkscape.org/namespaces/inkscape"
   xmlns:sodipodi="http://sodipodi.sourceforge.net/DTD/sodipodi-0.dtd"
   xmlns="http://www.w3.org/2000/svg"
   xmlns:svg="http://www.w3.org/2000/svg"><sodipodi:namedview
     id="namedview1"
     pagecolor="#505050"
     bordercolor="#ffffff"
     borderopacity="1"
     inkscape:showpageshadow="0"
     inkscape:pageopacity="0"
     inkscape:pagecheckerboard="1"
     inkscape:deskcolor="#505050"
     inkscape:document-units="mm"
     inkscape:zoom="0.41825547"
     inkscape:cx="876.25871"
     inkscape:cy="508.06269"
     inkscape:window-width="1920"
     inkscape:window-height="1177"
     inkscape:window-x="2552"
     inkscape:window-y="-8"
     inkscape:window-maximized="1"
     inkscape:current-layer="layer1" /><defs
     id="defs1" /><g
     inkscape:label="Layer 1"
     inkscape:groupmode="layer"
     id="layer1"><circle
       style="display:inline;fill:#cccccc;fill-opacity:1;stroke-width:1;stroke-linecap:round;stroke-linejoin:round;stroke-miterlimit:15"
       id="path1"
       cx="127"
       cy="127"
       r="127" /><path
       style="fill:#88511a;fill-opacity:1;stroke:#5a3511;stroke-width:7;stroke-linecap:round;stroke-linejoin:miter;stroke-miterlimit:15;stroke-dasharray:none;stroke-opacity:1;paint-order:normal"
       d="m 230.69824,150.89964 c 0,0 9.08721,-62.741535 -45.13108,-94.410573 -10.07574,-5.885266 -42.5445,-18.594884 -77.78785,-18.345047 -44.617915,0.316292 -1.28564,8.539936 -1.28564,8.539936 0,0 -48.392976,1.897764 -32.57828,4.428114 15.814696,2.530351 20.875397,3.162941 20.875397,3.162941 0,0 -56.89104,10.509261 -70.127112,59.131589 -13.236073,48.62237 1.265249,148.68946 1.265249,148.68946 l 236.197336,-0.31629 c 0,0 -41.23069,-52.81889 -31.42802,-110.88013 z"
       id="path8"
       sodipodi:nodetypes="csscscsccc" /><path
       style="fill:#e5aa70;fill-opacity:1;stroke:none;stroke-width:7.11015;stroke-linecap:round;stroke-linejoin:round;stroke-miterlimit:15;stroke-dasharray:none;stroke-opacity:1"
       d="M 37.259485,130.32285 C 56.875868,49.134169 133.02414,100.1631 133.02414,100.1631 c 0,0 92.06968,-6.810407 77.3585,65.43237 -11.85187,58.2015 -70.55564,59.18127 -109.51798,49.39384 C 66.064967,206.24754 25.90018,177.337 37.259485,130.32285 Z"
       id="path3"
       sodipodi:nodetypes="scsss" /><path
       style="fill:#c87c36;fill-opacity:1;stroke:none;stroke-width:7.11015;stroke-linecap:round;stroke-linejoin:round;stroke-miterlimit:15;stroke-dasharray:none;stroke-opacity:1"
       d="m 45.058814,109.08735 c 0,0 86.156296,-26.279506 69.923066,23.224 -5.46165,16.65541 -34.969877,12.46857 -34.969877,12.46857 0,0 -23.26196,-3.86321 -32.347123,7.2233 -11.324592,13.81925 -3.323679,25.32152 -3.323679,25.32152 0,0 -20.144258,-27.68317 0.717613,-68.23739 z"
       id="path4"
       sodipodi:nodetypes="cscscc" /><path
       style="fill:#c87c36;fill-opacity:1;stroke:none;stroke-width:7.11015;stroke-linecap:round;stroke-linejoin:round;stroke-miterlimit:15;stroke-dasharray:none;stroke-opacity:1"
       d="m 211.96015,149.49503 c 0,0 -65.38467,-62.483726 -74.02461,-11.20811 -2.90688,17.25165 24.1271,28.29766 24.1271,28.29766 0,0 20.39125,8.12395 23.31236,22.01247 3.64115,17.31194 -15.0985,25.69666 -15.0985,25.69666 0,0 41.22257,-10.26793 41.68365,-64.79868 z"
       id="path4-8"
       sodipodi:nodetypes="cscscc" /><ellipse
       style="fill:#5a3511;fill-opacity:1;stroke:#5a3511;stroke-width:3.6344;stroke-linecap:round;stroke-linejoin:round;stroke-miterlimit:15;stroke-dasharray:none;stroke-opacity:1"
       id="path5"
       cx="160.7785"
       cy="112.04478"
       rx="8.6549177"
       ry="4.7606425"
       transform="matrix(0.96236,0.27177792,-0.28616797,0.95817947,0,0)" /><path
       style="fill:none;fill-opacity:1;stroke:#5a3511;stroke-width:7.11015;stroke-linecap:round;stroke-linejoin:round;stroke-miterlimit:15;stroke-dasharray:none;stroke-opacity:1"
       d="m 152.57448,136.27863 c 0,0 1.31136,13.03531 13.69652,5.9509"
       id="path6"
       sodipodi:nodetypes="cc" /><path
       style="fill:none;fill-opacity:1;stroke:#5a3511;stroke-width:7.11015;stroke-linecap:round;stroke-linejoin:round;stroke-miterlimit:15;stroke-dasharray:none;stroke-opacity:1"
       d="m 88.557085,123.36534 c 0,0 5.002106,12.16083 14.860505,1.99545"
       id="path6-0"
       sodipodi:nodetypes="cc" /><path
       style="fill:none;fill-opacity:1;stroke:#5a3511;stroke-width:7.11015;stroke-linecap:round;stroke-linejoin:round;stroke-miterlimit:15;stroke-dasharray:none;stroke-opacity:1"
       d="m 95.721282,158.28576 c 0,0 1.778943,11.20602 21.000778,15.01895 20.16779,4.00056 25.04288,-5.10079 25.04288,-5.10079"
       id="path7"
       sodipodi:nodetypes="csc" /><path
       style="fill:none;fill-opacity:1;stroke:#5a3511;stroke-width:7.11015;stroke-linecap:round;stroke-linejoin:round;stroke-miterlimit:15;stroke-dasharray:none;stroke-opacity:1"
       d="M 37.259485,130.32285 C 56.875868,49.134169 133.02414,100.1631 133.02414,100.1631 c 0,0 92.06968,-6.810407 77.3585,65.43237 -11.85187,58.2015 -70.55564,59.18127 -109.51798,49.39384 C 66.064967,206.24754 25.90018,177.337 37.259485,130.32285 Z"
       id="path11"
       sodipodi:nodetypes="scsss" /></g></svg>
